<svg height="46" viewBox="0 0 43 46" width="43" xmlns="http://www.w3.org/2000/svg" xmlns:xlink="http://www.w3.org/1999/xlink"><filter id="a"><feColorMatrix in="SourceGraphic" type="matrix" values="0 0 0 0 1.000000 0 0 0 0 1.000000 0 0 0 0 1.000000 0 0 0 1.000000 0"/></filter><g fill="none" fill-rule="evenodd" filter="url(#a)"><path d="m39.462 19.193h-1.332v-1.872c0-3.021-2.476-5.458-5.496-5.458h-8.975v-4.49c1.18-.683 1.973-1.959 1.973-3.423 0-2.182-1.771-3.95-3.951-3.95-2.183 0-3.963 1.769-3.963 3.95 0 1.464.785 2.74 1.965 3.423v4.49h-8.961c-3.021 0-5.448 2.437-5.448 5.458v1.872h-1.381c-1.701 0-3.091 1.407-3.091 3.108v6.653c0 1.7 1.39 3.095 3.091 3.095h1.381v1.887c0 3.021 2.427 5.442 5.448 5.442h2.564v2.884c0 1.701 1.393 3.08 3.094 3.08h10.596c1.701 0 3.08-1.379 3.08-3.08v-2.883h2.578c3.021 0 5.496-2.422 5.496-5.443v-1.886h1.332c1.701 0 3.078-1.394 3.078-3.095v-6.653c0-1.701-1.375-3.109-3.078-3.109zm-29.781 2.078c0-1.999 1.621-3.618 3.619-3.618s3.617 1.619 3.617 3.618-1.619 3.618-3.617 3.618-3.619-1.619-3.619-3.618zm16.925 13.202h-9.856c-1.633 0-2.957-1.316-2.957-2.951 0-1.633 1.324-2.949 2.957-2.949h9.857c1.633 0 2.957 1.316 2.957 2.949s-1.325 2.951-2.958 2.951zm3.45-9.584c-1.998 0-3.618-1.619-3.618-3.618s1.62-3.618 3.618-3.618c1.999 0 3.619 1.619 3.619 3.618s-1.62 3.618-3.619 3.618z" fill="#000" fill-rule="nonzero"/></g></svg>