<svg height="46" viewBox="0 0 43 46" width="43" xmlns="http://www.w3.org/2000/svg" xmlns:xlink="http://www.w3.org/1999/xlink"><filter id="a"><feColorMatrix in="SourceGraphic" type="matrix" values="0 0 0 0 1.000000 0 0 0 0 1.000000 0 0 0 0 1.000000 0 0 0 1.000000 0"/></filter><g fill="none" fill-rule="evenodd" filter="url(#a)"><path d="m42.8633252 42.6964509c-1.503423-9.2384133-5.4249389-18.3423799-14.6767726-21.2617954 3.595599-2.0455114 5.9821516-5.6851774 5.9821516-9.8434238 0-6.3958246-5.6772617-11.5912317-12.6897311-11.5912317s-12.68973105 5.18580376-12.68973105 11.5912317c0 4.148643 2.39706605 7.7979124 5.98215155 9.8434238-9.2518337 2.9194155-13.18386304 12.0233821-14.67677257 21.2617954-.28386308 1.718998 1.198533 3.2651357 3.10146699 3.2651357h36.54474328c1.9239609 0 3.406357-1.5461377 3.1224939-3.2651357zm-29.2904646-31.1052192c0-3.98538619 3.5535453-7.23131521 7.916626-7.23131521 1.0408312 0 1.8924205.77787057 1.8924205 1.72860126 0 .95073068-.8515893 1.72860125-1.8924205 1.72860125-2.2814181 0-4.1317849 1.69018789-4.1317849 3.7741127 0 .9507307-.8515892 1.7286013-1.8924205 1.7286013-1.0513448 0-1.8924206-.7682672-1.8924206-1.7286013z" fill="#000" fill-rule="nonzero"/></g></svg>